<svg xmlns="http://www.w3.org/2000/svg"  width="140" height="140" viewBox="0 0 864 831.823">
    <g fill="#bc9e65">
      <path data-name="type &lt;CompoundPathItem&gt;" d="M22.327 525.244q2.975 0 2.976 8.93h2.978l4.465-2.977 1.488 1.488s-7.442 84.55-7.442 87.819l16.373-2.977 28.28-5.953h2.977l1.489 1.488 7.442-1.488h5.954l10.419 1.488v1.489c0 2.976-8.93 8.93-8.93 8.93l1.488-1.489v4.466l-49.119 11.907-31.258 11.908H7.442L0 641.343q0-3.764 5.954-4.466v-4.465l-4.465-5.954 5.954-66.98H8.93l1.006 6.411-1.488 10.419-1.006 18.893v14.884H8.93l5.954-78.888q2.975 0 2.977-4.465l1.489-1.488Z"/>
      <path data-name="type &lt;CompoundPathItem&gt;" d="M151.646 519.29q.963 4.466 11.908 4.466l11.908 52.095h10.419v1.488l-8.931 1.489v1.489q4.465 0 4.465 2.977h11.908v1.488q0 3.328-14.885 5.953l2.977 8.932-1.488 4.464 1.488 29.77v8.93l-1.488-1.488h-1.489l4.466 22.326h-2.977c0-2.977-1.489 1.489-1.489 1.489h-1.488l-1.488-1.489h-1.488q0 4.466-2.977 4.466l-8.932-35.723c-.818-8.93-4.464-25.304-4.464-25.304l-1.489-10.418-32.746 7.441v2.977l10.419-2.977 5.954 1.489 7.443-1.489v2.977q-31.258 5.604-31.258 14.885-3.94 16.374-8.93 20.838v2.977H99.55l-4.465-2.977 2.977-8.93h-1.49q-4.465 0-4.465 11.907l-2.977-2.977 1.489-8.931-4.465-4.466 25.304-61.025 2.976-1.489v-5.954s8.93-17.861 5.954-17.861l7.443-20.838h5.953s11.849-2.977 17.861-2.977Zm-8.93 34.234-11.907 31.258h2.976q14.884 0 16.373-8.931l-5.953-22.326ZM206.019 527.958l9.018 1.489 29.857-1.489 37.298 10.944 5.954 1.577-1.489 3.151h1.489v6.217l-58.225 70.657h8.93l9.018-1.663q18.473 4.816 23.816 14.184h1.576v6.217l-3.065 3.239h-1.488l-7.443-3.24 1.489 1.664v2.977l-11.908-2.977h-4.465q-14.447 0-38.874 9.368l-8.93-7.792 4.465-12.608-2.978-3.153v-6.216a116.88 116.88 0 0 1 14.973-20.4c0-3.152 16.373-15.673 16.373-15.673q13.308-20.924 17.948-21.976v1.576l-16.46 21.977h1.489l25.391-31.433-7.442 4.728-1.489-1.576 1.489-3.152-14.972 1.576h-17.862a22.05 22.05 0 0 1-10.506-10.945v-1.576l2.977-4.728q-2.453-7.88-7.443-7.88Z"/>
      <path data-name="type &lt;CompoundPathItem&gt;" d="m354.338 522.354 4.465 1.489q10.419 3.503 10.42 5.954l-7.442 8.93h2.977c3.969-2.042 8.93-4.465 8.93-4.465l1.488 2.977q-52.884 56.912-51.657 90.708l-2.977 14.797 1.488 1.488v1.489l-7.442 13.396-11.908-1.489V645.72l-4.465-5.866v-2.977l4.465-22.326 2.977-2.977-2.714-4.553v-14.885l-20.488-52.27v-2.977h2.976l-2.976-7.442 1.488-1.488h2.977q3.414 0 4.465 7.441l4.466-2.977h4.465q0 9.194 16.023 38.875 8.58-16.285 14.884-19.35v1.489q-14.886 18.912-14.884 22.327v1.488h1.488l35.023-47.455v-1.489l-17.161 17.687v-1.489ZM545.648 526.645q-.35 4.465 5.603 4.465l2.626 7.442q-10.681 31.52-13.046 72.934l.963 10.419-.086 1.488-1.665 2.977.877 10.42-.175 2.977q-7.97 9.63-8.32 14.884h-5.952l-7.18-2.977 2.101-10.419-5.69-5.953 2.713-22.327 1.489-26.792 3.24-4.466.35-5.953-1.401-1.489.088-1.488 3.064-1.489-1.401-1.488 6.042-28.28.524-10.42-1.312-2.976ZM620.77 525.682a56.922 56.922 0 0 1 32.746 10.419l-1.488 1.488v1.489l5.953 8.93h-2.977l-1.488-1.489h-1.489l4.466 32.746h1.488q0-7.44 2.976-7.442v5.954q0 8.405-14.884 38.7h1.489q-10.506 14.446-31.258 26.791l-7.442 1.489h-1.489q-35.374 0-44.652-28.28l-5.954-8.93 1.488-1.49-1.488-10.418v-2.977q0-12.346 23.814-43.165v1.488c-7.296 9.806-16.372 34.234-16.372 34.234 3.618-14.534 25.356-50.748 25.356-50.748s12.35-6.395 31.205-8.79Zm-7.442 26.792-10.42 8.93q-12.345 0-23.815 41.676 0 11.908 13.396 20.839h1.489q16.285 0 37.21-34.235 7.442-16.285 7.442-23.815v-11.907q0-4.114-14.884-5.954h-1.488l-1.489 1.489h-1.488v-1.489ZM693.792 526.82l10.418 8.93q0-4.465 2.977-4.465h1.488l20.84 53.584-1.489 2.977-4.465-5.954 10.418 25.304h1.488a770.419 770.419 0 0 1 17.161-80.814l4.466 2.977 4.465-1.489 10.42 5.954h2.977v1.489l-1.489 1.488 1.489 1.488v1.489q-11.21 34.41-20.138 98.675h-2.977l2.977-23.815q-2.979 0-8.931 28.28-5.515 4.465-10.42 4.466l-7.441-10.42q0-6.741-29.77-74.422h-1.488q-5.956 26.53-10.42 71.446l-1.487-1.488q-8.932 2.627-8.932 7.442h-2.977q-2.977-5.602-2.975-19.35h-1.489v13.397h-2.977l-1.488-7.443q0-40.45 17.86-98.237ZM823.637 523.93q3.94 2.978 25.04 2.978l-.086 1.488h-10.42s20.108 4.465 23.202 10.419l-.175 2.977h-7.442l-.087 1.488L864 544.769s-4.699 3.971-4.816 5.954q-26.53 0-47.367 19.35l-.088 1.489q28.807 7.705 45.617 34.234l-.087 1.488q-5.431 19.263-30.382 35.723l-9.107 1.489-.087 1.488h2.977q-.177 4.027-27.318 8.93l.176-2.977h7.442l.175-1.488q-9.545 0-17.248-10.42-6.656-3.413-6.654-13.045 0-.874.087-1.839l4.64-2.977 4.291 2.977h2.977q42.027-6.566 43.34-26.791c-11.732-5.954-38-13.396-38-13.396l1.402 1.488-.088 2.976q-18.564-13.658-18.125-20.837l11.646-20.839 7.792-5.953-.176 2.976Z"/>
      <path data-name="type &lt;CompoundPathItem&gt;" d="M448.691 525.244q2.976 0 2.977 8.93h2.977l4.465-2.977 1.489 1.488s-7.443 84.55-7.443 87.819l16.373-2.977 28.28-5.953h2.977l1.489 1.488 7.442-1.488h5.954l10.419 1.488v1.489c0 2.976-8.93 8.93-8.93 8.93l1.488-1.489v4.466l-49.119 11.907-31.257 11.908h-4.465l-7.443-8.93q0-3.764 5.955-4.466v-4.465l-4.466-5.954 5.954-66.98h1.488l1.005 6.411-1.488 10.419-1.006 18.893v14.884h1.488l5.954-78.888q2.976 0 2.977-4.465l1.489-1.488Z"/>
      <g>
        <path data-name="logoMark &lt;PathItem&gt;" d="m295.11 203.765-43.975-40.763-.06-.26-1.355-5.954-3.281-.026-1.068-7.326-2.308-1.103 3.402-1.215-5.955-11.319-.607-1.701 3.411-1.216-2.309-1.102-1.215-3.403 3.203-1.146-.417-1.805-.59-1.676-3.41 1.216-.608-1.702 3.41-1.215-2.317-1.102-4.245-11.927 2.31 1.094 1.7-.608-2.43-6.814-2.309-1.094-.607-1.71 3.038-1.085-7.222-31.717-41.917 75.335.573 86.898 80.796 30.797ZM676.413 173.809l.017-2.925-.39.069.373 2.856zM405.243 317.901l.556.494 4.974 3.403.529-.53-2.239-1.979-3.325-1.944-.495.556z"/>
        <path data-name="logoMark &lt;PathItem&gt;" d="m677.707 140.668-1.936-4.262a5.617 5.617 0 0 1-2.821-.59h-.009l-1.19-2.144v-.009a3.983 3.983 0 0 1 .01-.45l-.252.025-36.804-66.152-7.942 34.885-2.638 1.605-4.892 24.74.806 1.324 1.035-4.258.42-.256-.001.005-1.05 4.608-.405-.099a526.9 526.9 0 0 0-.171 2.608l-.006.026-4.451 19.562-1.357-2.23-1.323.805 1.092 4.775.598.982v.003l-1.493 6.57-.06.26-43.975 40.763 26.362 56.352 80.795-30.797.096-14.583v-.304l-.009-.191-2.404-19.044 1.701-3.56-.52-4.235-1.173-.868-.13-1.06 2.092-.381-.13-1.059-1.18-.868.617-20.676-1.05.19.92-1.25-.842-6.345-.2-.147a60.98 60.98 0 0 1 .565-2.24l2.16-.608.044-7.152c.339-1.085.686-2.153 1.042-3.212h-1.068Z"/>
        <path data-name="logoMark &lt;CompoundPathItem&gt;" d="m292.444 110.739 1.311.642 1.962 6.094-.686 1.389.998-.374 3.082 20.46 1.31.642.313 1.015-1.988.756.313 1.015 1.31.643 1.268 4.08-1.042 3.802 5.755 18.315 3.802 15.633.59.286.005.003 1.637 9.488 2.873 12.664 39.937 24.47 64.928-88.26-43.088-51.84L373.7 0l-79.676 88.208 3.279 19.007-5.181 2.5Zm8.342 26.44.998-.374 1.406 4.549.005.009.281 1.632-.789.294Zm4.349 15.433-.539.2-1.961-6.094.998-.373.912 2.847.001.005.59 3.415Zm-3.318-19.235-.988.373-2.265-7.11.99-.372 2.248 7.04.005.01Z"/>
        <path data-name="logoMark &lt;CompoundPathItem&gt;" d="m596.876 273.102-4.479 3.073.834 1.953 8.819-3.759.416.981a61.023 61.023 0 0 0-5.989 2.89l-10.121 3.854-28.167-60.223L504.25 254.9l-72.254-98.234-12.04 16.37-2.559-.852-18.65 22.152v1.488l17.161-17.686v.398l-35.707 48.544v.001h-.804v-1.488q0-3.415 14.885-22.327v-1.488q-6.29 3.059-14.845 19.276a14.574 14.574 0 0 1-.388 1.617l-1.4 3.317c-.044.096-.081.172-.12.255a80.018 80.018 0 0 1-.399 1.413q-.806 2.72-1.39 5.5c-.009.008-.009.008-.009.017l-14.287 19.418a32.19 32.19 0 0 0 2.847 2.265l-5.894 1.771c-1.137-.486-1.537-1.571-1.19-3.281l-2.664-1.632-3.516.868-33.288-17.82.33-.764 3.533.885 5.052 3.064 9.54 4.679 3.845 1.64 3.845 1.632.243-.564-2.639-1.615-31.397-16.266c.425-.06 1.06-.14 1.06-.148a28.095 28.095 0 0 1 3.523 0l-8.871-5.434-28.167 60.224-89.363-34.061 43.792 69.51-.339.27-.243 2.092c1.85 2.335 1.988 4.123.434 5.347l44.243 65.587-1.163.92-4.618-5.842-4.618-5.833-10.92-15.45-5.295-9.097-4.765-4.401-1.164.92 36.857 56.239 7.195 1.9 2.77 3.508q-4.232 4.244-1.901 7.195l9.956 2.093 30.303 48.088h.009c15.762-11.388 45.273-19.817 80.583-22.369a17.626 17.626 0 0 1 3.587 1.38c.276-.545.54-1.106.805-1.665l.013-.001c4.66-.27 9.418-.434 14.243-.495 2.805-18.749 5.226-36.995 4.488-55.188a159.289 159.289 0 0 0-9.513-47.603.629.629 0 0 0-.226-.095l-24.391 36.786-.651-.79c-.096-.096-7.743-9.375 1.536-23.827a35.03 35.03 0 0 1 15.946-13.428l-.043-.192-41.64 14.367-.043-.98c0-.14-.469-13.707 17.812-20.234a39.023 39.023 0 0 1 13.523-2.379 42.251 42.251 0 0 1 9.835 1.215v-.234l-43.87-9.696.512-.885c.148-.295 3.203-5.695 11.172-7.865-.191-.156-.39-.312-.59-.469q7.447-2.512 18.35-.963l3.914 2.465.53-.53-1.12-.99q1.406-1.457 13.237 5.73l-1.06 1.059-2.794-2.474-.564.503a8.765 8.765 0 0 1 2.656 4.41 37.146 37.146 0 0 1 6.388 7.092 2.484 2.484 0 0 0 .278.19 1.288 1.288 0 0 0 .278-1.12l-.043-.19a41.045 41.045 0 0 1 2.795-28.81c6.996-14.227 17.021-15.763 20.98-15.763a13.172 13.172 0 0 1 1.588.095l.98.182-19.165 40.007.044.191a44.392 44.392 0 0 1 19.4-19.027 34.853 34.853 0 0 1 15.667-4.2c9.366 0 14.262 4.99 14.496 5.225l.703.703-40.476 21.258a41.675 41.675 0 0 1 20.095-2.1c19.261 2.942 21.405 16.318 21.405 16.457l.14.98-37.343-5.173a34.874 34.874 0 0 1 14.028 8.116c12.499 11.84 7.317 22.656 7.273 22.751l-.468.929-26.665-24.521-4.01-3.68a169.974 169.974 0 0 1 11.926 40.615v.008l.816.946q3.75 9.115 3.82 22.908l-1.077-1.268-2.63-15.746c2.24 18.593 1.45 37.108.313 54.668a.235.235 0 0 1-.009.078c-.008.26-.026.53-.043.79 1.432.07 2.838.14 4.253.226h.009q12.604-2.93 32.698-2.916l.695 1.51-3.507 1.18-14.34-.303-1.719.676.478 1.05a257.19 257.19 0 0 1 21.735 3.282c.017 0 .026 0 .034.008a98.042 98.042 0 0 1 27.36 7.491.067.067 0 0 1 .044.018c1.892.694 3.706 1.414 5.46 2.161l-.616-1.345-3.837-3.941q6.354.364 12.882 9.34h.008a65.19 65.19 0 0 1 6.91 4.305l-.009-.043.148.147 32.524-51.612 5.078-8.09 44.267-70.263a.684.684 0 0 1 .107.016l-9.647 21.976 2.854.85q14.895-32.709 27.845-56.432c0-.003 0-.006.005-.006l37.473-59.485-32.516 12.395q-27.33 4.596-46.327 12.673ZM428.29 410.484l1.077-.773q1.666 7.695-.556 10.607l-.963-1.354Zm-4.678-49.755.642 7.708.963 1.354 1.823 4.817-1.076.773-2.9-4.045.114-2.127 1.076-.772-.972-1.346-.634-7.716Zm17.907-53.818-.026-1.657 3.88-6.702.026 1.658Zm199.002-45.466v.008l-.113.044Z"/>
        <path data-name="logoMark &lt;PathItem&gt;" d="m185.82 207.521-.105-7.102-.869-1.123.105 7.102.869 1.123zM182.494 193.933l1.483 4.239.869 1.124 1.124-.869.254-1.993-2.607-3.37-1.123.869zM182.942 166.65l-.87-1.123q-2.013 12.966.316 21.304l.87 1.123ZM183.705 160.672l1.02-7.97-.87-1.125q-2.411 3.03-1.274 9.964ZM604.566 367.673l-16.456 36.845 1.793 1.328 1.102-1.923 7.445-19.02 1.858 1.213 9.19-17.871-1.747-1.149-3.185.577zM381.81 75.25q3.003-19.714-.574-32.376l-1.325-1.704.573 32.377ZM356.19 459.519l-.91-.639c-.394.851-.812 1.722-1.083 2.292 1.325.582 2.65 1.158 3.963 1.778a28.447 28.447 0 0 1 7.304.474l-2.617-1.836 37.531-7.483-1.742-1.223q-16.879-.365-42.446 6.637ZM400.378 454.105l1.743 1.222 6.241-.825-1.744-1.223-6.24.826z"/>
        <path data-name="logoMark &lt;CompoundPathItem&gt;" d="M466.378 174.087c1.97 3.69 2.9 5.946 2.76 6.727l8.62 10.833q-2.5 1.992 2.804 8.654l1.666-1.328.668.833c.877 1.111.487 2.335-1.18 3.655l.669.842 1.666-1.328 3.316 4.166-1.84 2.821 6.31 4.505-.833.66-1.502-.165q4.22 5.287 13.281 9.844l.573-.452 5.45 7.408 39.937-24.47 2.288-10.082 2.445-.928 16.87-69.854-3.57-1.745-1.307 3.727-6.87 35.719-1.606-.67 12.982-75.25L490.299 0l-1.22 33.563h-.549l-.999-1.068-1.38 8.525.999 1.058h-2.127q-2.253 30.885-3.889 33.575v.313q0 3.945 4.08 3.95l-1.44 10.65 3.218.408-.026.69-43.088 51.837 22.5 30.585Zm20.398-122.426h1.069l-.443 11.719h-1.06Zm4.731 158.978 1.329 1.667 4.149 3.507-1.667 1.328-12.916-19.661.745-.598 4.239 5.762.32 1.502.66.834.807.095h.002l1.257 1.708v.002l-.079.694.374-.295.555.756Z"/>
        <path data-name="logoMark &lt;PathItem&gt;" d="m464.375 114.158-9.509 7.484-.331 2.18 9.51-7.483.33-2.181z"/>
        <path data-name="logoMark &lt;PathItem&gt;" d="m454.204 126.005.331-2.183-2.728-.413-3.059 1.769-.992 6.541 2.729.414 3.719-6.128zM618.083 114.506l2.073-8.514-.806-1.325q-2.982 2.99-2.591 10.645ZM614.283 144.024l2.246-23.13-.805-1.324q-3.758 13.81-2.246 23.131Z"/>
      </g>
      <g>
        <path data-name="tagline &lt;CompoundPathItem&gt;" d="M235.6 726.402c0 5.07-3.64 8.22-9.077 8.22h-6.256v10.548h-3.271v-26.986h9.527c5.438 0 9.077 3.148 9.077 8.218Zm-3.435 0c0-3.352-1.88-5.151-6.133-5.151h-5.765v10.303h5.765c4.252 0 6.133-1.798 6.133-5.152ZM260.258 733.967h-6.46v11.203h-3.271v-26.986h10.222c5.479 0 9.118 3.026 9.118 7.892a7.47 7.47 0 0 1-5.97 7.523l7.606 11.57h-3.885Zm-6.46-3.067h6.91c3.843 0 5.724-1.594 5.724-4.824s-1.88-4.825-5.724-4.825h-6.91ZM289.578 745.17h-3.271v-26.986h3.27ZM317.71 745.17h-3.721l-10.262-26.986h3.516l6.869 18.645 1.717 5.356 1.717-5.315 6.87-18.686h3.515ZM354.797 737.688h-12.225l-2.862 7.482h-3.435l10.508-26.986h3.885l10.467 26.986h-3.475Zm-1.186-3.067-3.638-9.567-1.268-3.762h-.082l-1.185 3.639-3.68 9.69ZM390.495 721.251h-9.404v23.919h-3.271v-23.919h-9.404v-3.067h22.08ZM424.352 742.103v3.067h-19.544v-26.986h18.931v3.067h-15.66v8.709h12.185v3.066h-12.185v9.077ZM465.286 745.17h-3.271v-26.986h3.27ZM501.8 723.5l-2.821 2.29c-1.636-3.557-3.598-4.947-7.565-4.947-4.292 0-6.664 2.003-6.664 4.58 0 2.534 1.799 3.802 7.482 4.782 7.237 1.227 9.813 3.517 9.813 7.687 0 4.62-4.13 7.687-10.426 7.687-5.724 0-9.486-2.494-11.367-5.846l2.821-2.29c1.432 3.107 4.212 5.07 8.628 5.07 4.17 0 6.95-1.554 6.95-4.457 0-2.33-1.757-3.68-7.441-4.661-7.278-1.268-9.895-3.475-9.895-7.605 0-4.334 3.803-8.014 10.059-8.014 4.947 0 8.34 1.962 10.426 5.724ZM536.23 742.103v3.067h-18.727v-26.986h3.272v23.919ZM565.712 737.688h-12.225l-2.861 7.482h-3.435l10.507-26.986h3.885l10.468 26.986h-3.476Zm-1.185-3.067-3.639-9.567-1.268-3.762h-.081l-1.186 3.639-3.68 9.69ZM607.299 745.17h-4.048l-11.285-18.073-2.863-5.314h-.04l.163 4.334v19.053h-3.107v-26.986h4.048l11.244 17.99 2.903 5.397h.04l-.163-4.333v-19.054h3.108ZM647.004 731.677c0 8.668-5.11 13.493-13.575 13.493h-8.709v-26.986h8.709c8.464 0 13.575 4.825 13.575 13.493Zm-3.435 0c0-6.542-3.64-10.426-9.813-10.426h-5.765v20.852h5.765c6.174 0 9.813-3.884 9.813-10.426ZM355.777 829.24v2.279h-14.523v-20.054h14.068v2.28h-11.637v6.47h9.054v2.28h-9.054v6.745ZM382.725 815.415l-2.096 1.702c-1.216-2.643-2.674-3.677-5.621-3.677-3.19 0-4.953 1.49-4.953 3.404 0 1.883 1.337 2.825 5.56 3.554 5.378.912 7.292 2.613 7.292 5.713 0 3.433-3.068 5.712-7.747 5.712-4.254 0-7.05-1.854-8.447-4.345l2.097-1.701c1.063 2.309 3.13 3.767 6.41 3.767 3.1 0 5.165-1.155 5.165-3.312 0-1.732-1.306-2.735-5.529-3.464-5.409-.942-7.354-2.582-7.354-5.651 0-3.22 2.827-5.955 7.475-5.955 3.677 0 6.199 1.458 7.748 4.253ZM409.095 813.745h-6.988v17.774h-2.431v-17.774h-6.988v-2.28h16.407ZM437.65 829.544c8.022-5.894 10.513-8.538 10.513-12.092a3.896 3.896 0 0 0-4.254-4.012c-2.765 0-4.497 1.945-4.77 4.953l-2.127-1.276a6.585 6.585 0 0 1 6.989-5.955c4.102 0 6.714 2.583 6.714 6.29 0 3.767-2.43 7.079-9.6 11.85v.03c.667-.03 2.4-.09 3.007-.09h7.019v2.278H437.65ZM462.987 821.492c0-6.715 2.613-10.33 7.474-10.33s7.475 3.615 7.475 10.33-2.613 10.331-7.475 10.331-7.474-3.616-7.474-10.33Zm12.427 0c0-5.286-1.732-8.142-4.953-8.142s-4.952 2.855-4.952 8.142 1.732 8.143 4.952 8.143 4.953-2.856 4.953-8.143ZM490.056 829.544c8.022-5.894 10.513-8.538 10.513-12.092a3.896 3.896 0 0 0-4.254-4.012c-2.765 0-4.497 1.945-4.77 4.953l-2.127-1.276a6.585 6.585 0 0 1 6.989-5.955c4.102 0 6.714 2.583 6.714 6.29 0 3.767-2.43 7.079-9.6 11.85v.03c.667-.03 2.4-.09 3.007-.09h7.019v2.278h-13.49ZM522.746 811.465v20.054h-2.43v-14.706c0-.669.03-1.488.06-2.34a11.771 11.771 0 0 1-5.195 2.826l-.639-2.218a12.752 12.752 0 0 0 6.077-3.616Z"/>
      </g>
    </g>
  </svg>