<svg width="112" height="106" fill="none"
  xmlns="http://www.w3.org/2000/svg">
  <path d="m25.59 45.808-9.874-9.164-.014-.058-.304-1.339-.736-.006-.24-1.647-.519-.248.764-.273-1.337-2.544-.136-.383.766-.273-.519-.248-.272-.765.719-.258-.094-.405-.132-.377-.766.273-.137-.382.766-.273-.52-.248-.953-2.681.518.245.382-.136-.545-1.532-.519-.246-.136-.384.682-.244-1.622-7.13L1.4 32.017l.13 19.536 18.14 6.923 5.92-12.668ZM111.207 39.074l.004-.658-.088.016.084.642ZM50.32 71.466l.125.112 1.117.765.119-.12-.503-.445-.746-.437-.112.126Z" fill="#BC9E65"/>
  <path d="m111.497 31.623-.434-.958a1.262 1.262 0 0 1-.634-.133h-.002l-.267-.482v-.002c-.001-.033 0-.067.002-.1l-.056.005-8.264-14.871-1.783 7.842-.593.36-1.098 5.562.18.298.233-.957.094-.058v.001l-.236 1.036-.09-.022-.039.586-.001.006-1 4.398-.304-.502-.297.182.245 1.073.134.22v.001l-.335 1.478-.014.058-9.874 9.164 5.92 12.668 18.141-6.923.022-3.279v-.068l-.002-.043-.54-4.281.382-.8-.117-.953-.263-.195-.029-.238.469-.086-.029-.238-.265-.195.139-4.648-.236.043.206-.281-.189-1.427-.045-.033c.039-.17.082-.337.127-.503l.485-.137.01-1.608c.076-.244.154-.484.234-.722h-.24l.253-.238ZM24.992 24.895l.294.144.44 1.37-.153.312.224-.084.692 4.6.294.144.07.229-.446.17.07.228.294.144.285.917-.234.855 1.292 4.117.854 3.515.133.064.368 2.134.645 2.847 8.968 5.5 14.579-19.84-9.675-11.655L43.237 0l-17.89 19.83.736 4.273-1.163.562.072.23Zm1.873 5.944.224-.084.316 1.022.001.002.063.367-.177.066-.427-1.373Zm.977 3.47-.121.044-.44-1.37.223-.083.205.64.133.768Zm-.745-4.325-.222.084-.509-1.598.223-.084.504 1.582.002.003.002.013Z" fill="#BC9E65"/>
  <path d="m93.348 61.395-1.006.691.188.44 1.98-.846.093.22c-.46.193-.908.41-1.344.65l-2.273.867-6.325-13.539-12.11 7.425L56.325 35.22l-2.703 3.68-.575-.192-4.187 4.98v.335l3.853-3.976v.09l-8.017 10.912h-.181v-.334c0-.512 1.114-2.185 3.342-5.02v-.334c-.941.459-2.052 1.903-3.333 4.334a3.286 3.286 0 0 1-.087.363l-.314.746-.028.057c-.027.105-.08.285-.089.318-.12.407-.225.82-.312 1.236l-.002.004-3.208 4.365c.203.182.416.352.639.51l-1.323.398c-.256-.11-.345-.354-.267-.738l-.599-.367-.79.195-7.474-4.006.075-.172.793.2 1.134.688 2.142 1.052.864.369.863.367.054-.127-.592-.363-7.05-3.657c.096-.014.238-.031.238-.033.264-.017.528-.017.791 0l-1.992-1.222-6.324 13.539L1.602 55.76l9.832 15.626-.076.06-.054.471c.415.525.446.927.097 1.202l9.934 14.745-.26.207-1.038-1.314L19 85.446l-2.451-3.474-1.19-2.044-1.07-.99-.26.207 8.275 12.643 1.616.427.621.789c-.633.636-.775 1.175-.426 1.617l2.235.47 6.804 10.811h.002c3.54-2.56 10.166-4.455 18.094-5.028.28.073.55.177.806.31.062-.123.12-.249.18-.375h.003a72.24 72.24 0 0 1 3.199-.111c.63-4.215 1.173-8.317 1.007-12.407A35.85 35.85 0 0 0 54.31 77.59a.145.145 0 0 0-.05-.022l-5.477 8.27-.146-.177c-.022-.022-1.74-2.108.344-5.357a7.87 7.87 0 0 1 3.58-3.019l-.009-.043-9.35 3.23-.01-.22c0-.032-.104-3.082 4-4.55.973-.356 2.001-.537 3.037-.534a9.48 9.48 0 0 1 2.208.273v-.052l-9.85-2.18.115-.2c.033-.065.719-1.28 2.508-1.767l-.133-.105c1.115-.377 2.489-.45 4.12-.217l.88.554.119-.119-.252-.222c.21-.219 1.201.21 2.972 1.288l-.237.238-.628-.556-.127.113c.294.263.502.608.597.991a8.35 8.35 0 0 1 1.434 1.594c.02.016.04.03.063.043a.289.289 0 0 0 .062-.252l-.01-.043a9.237 9.237 0 0 1 .628-6.476c1.57-3.198 3.822-3.544 4.71-3.544.12 0 .239.007.357.022l.22.04-4.303 8.994.01.043a9.974 9.974 0 0 1 4.356-4.277 7.82 7.82 0 0 1 3.518-.945c2.103 0 3.202 1.122 3.255 1.175l.158.158-9.089 4.78a9.346 9.346 0 0 1 4.512-.473c4.325.661 4.806 3.669 4.806 3.7l.032.22-8.385-1.163a7.828 7.828 0 0 1 3.15 1.825c2.806 2.662 1.643 5.093 1.633 5.114l-.105.21-5.987-5.513-.9-.828a38.25 38.25 0 0 1 2.677 9.13v.003l.183.213c.561 1.366.847 3.082.858 5.15l-.242-.286-.59-3.54c.503 4.18.325 8.343.07 12.29 0 .006 0 .012-.002.018a5.245 5.245 0 0 1-.01.177c.322.016.638.032.955.051h.002c1.887-.439 4.334-.657 7.342-.655l.156.339-.787.265-3.22-.068-.386.152.107.236a57.701 57.701 0 0 1 4.888.74 21.971 21.971 0 0 1 6.153 1.688c.425.156.832.318 1.226.486l-.138-.303-.862-.886c.951.055 1.916.755 2.893 2.1h.002c.537.29 1.055.613 1.551.968l-.002-.01.033.033 7.303-11.603 1.14-1.818 9.94-15.796a.15.15 0 0 1 .024.004l-2.166 4.94.64.191c2.23-4.902 4.314-9.13 6.253-12.686l.001-.001 8.414-13.373-7.301 2.786c-4.09.69-7.558 1.639-10.402 2.85ZM55.494 92.28l.242-.174c.25 1.153.208 1.948-.125 2.385l-.216-.305.1-1.906Zm-1.05-11.186.144 1.733.216.305.41 1.083-.242.173-.651-.909.025-.478.242-.174-.218-.302-.143-1.735.217.304Zm4.02-12.098-.005-.373.87-1.506.007.373-.872 1.506Zm44.684-10.221v.002l-.026.01.026-.012ZM1.05 46.652l-.023-1.596-.195-.253.024 1.597.195.252ZM.305 43.598l.333.953.195.252.252-.195.057-.448-.585-.758-.252.196ZM.405 37.464l-.195-.252c-.302 1.943-.278 3.54.07 4.789l.196.253-.071-4.79ZM.577 36.12l.228-1.792-.195-.252c-.36.454-.456 1.2-.286 2.24l.253-.196Z" fill="#BC9E65"/>
  <path d="m95.076 82.656-3.695 8.283.403.298.247-.432 1.672-4.276.417.273 2.063-4.018-.392-.258-.715.13ZM45.057 16.917c.45-2.955.407-5.381-.129-7.279l-.297-.383.128 7.279.298.383ZM39.305 103.303l-.204-.143c-.089.191-.183.387-.244.515.298.131.595.26.89.4.55-.036 1.1 0 1.64.106l-.587-.413 8.427-1.682-.391-.275c-2.527-.054-5.704.443-9.531 1.492ZM49.227 102.086l.39.275 1.402-.186-.391-.275-1.401.186ZM64.046 39.136c.443.83.651 1.337.62 1.512l1.936 2.436c-.375.298-.165.947.63 1.945l.373-.298.15.187c.197.25.11.525-.265.822l.15.189.375-.299.744.937-.413.634 1.417 1.013-.187.148-.337-.037c.631.792 1.625 1.53 2.982 2.213l.128-.101 1.224 1.665L82.54 46.6l.514-2.267.55-.208 3.787-15.704-.802-.392-.293.837-1.543 8.03-.36-.15 2.915-16.917L69.418 0l-.274 7.545h-.124l-.224-.24-.31 1.916.224.239h-.477c-.337 4.628-.629 7.144-.873 7.547v.07c0 .592.305.888.916.889l-.324 2.394.723.092-.006.154-9.675 11.654 5.052 6.876Zm4.58-27.522h.24l-.1 2.634h-.237l.097-2.634Zm1.063 35.74.298.374.932.788-.375.299-2.9-4.42.168-.135.951 1.296.072.338.148.187.182.021.282.384-.017.157.083-.066.125.17.05.606Z" fill="#BC9E65"/>
  <path d="m63.596 25.664-2.135 1.682-.074.49 2.135-1.682.074-.49ZM61.313 28.327l.074-.49-.612-.094-.687.398-.223 1.47.613.093.835-1.377ZM98.11 25.742l.466-1.914-.181-.298c-.447.448-.64 1.246-.582 2.393l.297-.181ZM97.257 32.378l.504-5.2-.18-.298c-.563 2.07-.731 3.803-.505 5.2l.18.298Z" fill="#BC9E65"/>
</svg>